<?xml version="1.0" encoding="UTF-8"?>
<svg xmlns="http://www.w3.org/2000/svg" viewBox="0 0 64 64">
  <!-- Single-color brain silhouette for Safari pinned tabs. Safari recolors. -->
  <path d="M 32 9
           C 24 7, 16 11, 15 19
           C 9 21, 7 30, 13 33
           C 9 38, 13 47, 21 47
           C 22 51, 28 54, 32 52
           C 36 54, 42 51, 43 47
           C 51 47, 55 38, 51 33
           C 57 30, 55 21, 49 19
           C 48 11, 40 7, 32 9 Z"/>
  <path d="M 29 50 L 29 56 Q 29 58 31 58 L 33 58 Q 35 58 35 56 L 35 50 Z"/>
</svg>
